<?xml version="1.0" encoding="utf-8"?>
<!-- Generator: Adobe Illustrator 13.0.0, SVG Export Plug-In . SVG Version: 6.00 Build 14948)  -->
<!DOCTYPE svg PUBLIC "-//W3C//DTD SVG 1.1//EN" "http://www.w3.org/Graphics/SVG/1.1/DTD/svg11.dtd">
<svg version="1.1" id="Layer_1" xmlns="http://www.w3.org/2000/svg" xmlns:xlink="http://www.w3.org/1999/xlink" x="0px" y="0px"
	 width="1399.605px" height="1351.447px" viewBox="0 0 1399.605 1351.447" enable-background="new 0 0 1399.605 1351.447"
	 xml:space="preserve">
<g>
	<defs>
		<rect id="SVGID_1_" width="1399.605" height="1351.447"/>
	</defs>
	<clipPath id="SVGID_2_">
		<use xlink:href="#SVGID_1_"  overflow="visible"/>
	</clipPath>
	<path clip-path="url(#SVGID_2_)" d="M1359.765,13.682H43.564c-14.3,0-26,11.7-26,26V1308.28c0,14.299,11.7,26,26,26h1316.2
		c14.3,0,26-11.701,26-26V39.682C1385.765,25.382,1374.064,13.682,1359.765,13.682"/>
	<path clip-path="url(#SVGID_2_)" fill="#FFFFFF" d="M1160.457,404.204c-31.654-1.424-68.708-16.766-105.516-33.345
		c-40.252-18.13-79.95-38.393-120.934-53.74c-67.231-25.179-131.635-18.035-190.327,32.981c-3.104,2.698-11.732,2.913-13.026,0.552
		c-2.385-4.35-3.315-12.927-1.228-17.224c26.716-54.99,80.602-109.682,150.968-103.973c37.578,3.049,72.579,17.625,107.45,33.1
		c43.475,19.293,86.307,41.259,130.699,56.849c64.06,22.496,125.264,12.253,180.657-35.431c3.234-2.785,11.58-3.659,13.05-1.343
		c2.584,4.074,3.696,12.379,1.946,17.047C1291.943,359.037,1223.343,408.171,1160.457,404.204"/>
	<path clip-path="url(#SVGID_2_)" fill="#FFFFFF" d="M1058.832,612.393c-24.211-1.269-52.553-14.939-80.705-29.711
		c-30.787-16.155-61.15-34.21-92.497-47.885c-51.423-22.434-100.683-16.069-145.573,29.388c-2.374,2.404-8.974,2.596-9.963,0.492
		c-1.824-3.876-2.536-11.518-0.939-15.348c20.435-48.998,61.649-97.729,115.47-92.643c28.741,2.717,55.513,15.705,82.184,29.493
		c33.253,17.191,66.013,36.763,99.967,50.654c48.995,20.045,95.809,10.918,138.177-31.57c2.475-2.481,8.857-3.26,9.981-1.197
		c1.977,3.63,2.827,11.031,1.488,15.19C1159.4,572.148,1106.931,615.928,1058.832,612.393"/>
	<path clip-path="url(#SVGID_2_)" fill="#FFFFFF" d="M935.984,800.814c-19.936-1.104-43.271-12.991-66.453-25.836
		c-25.35-14.048-50.352-29.748-76.162-41.641c-42.343-19.509-82.903-13.974-119.866,25.556c-1.956,2.09-7.39,2.257-8.205,0.428
		c-1.501-3.371-2.087-10.017-0.773-13.346c16.826-42.608,50.763-84.986,95.078-80.562c23.667,2.362,45.71,13.656,67.671,25.647
		c27.38,14.948,54.356,31.968,82.313,44.048c40.343,17.431,78.89,9.494,113.775-27.453c2.037-2.157,7.294-2.835,8.219-1.041
		c1.627,3.157,2.328,9.592,1.226,13.209C1018.793,765.817,975.588,803.889,935.984,800.814"/>
	<polygon clip-path="url(#SVGID_2_)" fill="#F7D300" points="735.664,80.183 135.751,711.026 346.945,711.026 83.718,1217.478 
		695.874,583.673 478.689,588.126 	"/>
	<polygon clip-path="url(#SVGID_2_)" fill="#9B8100" points="346.945,711.026 572.871,711.026 278.401,842.905 	"/>
</g>
</svg>
