<?xml version="1.0" encoding="utf-8"?>
<!-- Generator: Adobe Illustrator 23.0.3, SVG Export Plug-In . SVG Version: 6.00 Build 0)  -->
<svg version="1.1" id="Layer_1" xmlns="http://www.w3.org/2000/svg" xmlns:xlink="http://www.w3.org/1999/xlink" x="0px" y="0px"
	 viewBox="0 0 1399.61 1351.45" style="enable-background:new 0 0 1399.61 1351.45;" xml:space="preserve">
<style type="text/css">
	.st0{fill:#FFFFFF;}
	.st1{fill:#F7D300;}
	.st2{fill:#9B8100;}
</style>
<g>
	<path d="M1359.76,13.68H43.56c-14.3,0-26,11.7-26,26v1268.6c0,14.3,11.7,26,26,26h1316.2c14.3,0,26-11.7,26-26V39.68
		C1385.76,25.38,1374.06,13.68,1359.76,13.68z"/>
	<g>
		<g>
			<path class="st0" d="M1160.46,404.2c-31.65-1.42-68.71-16.77-105.52-33.34c-40.25-18.13-79.95-38.39-120.93-53.74
				c-67.23-25.18-131.64-18.03-190.33,32.98c-3.1,2.7-11.73,2.91-13.03,0.55c-2.38-4.35-3.32-12.93-1.23-17.22
				c26.72-54.99,80.6-109.68,150.97-103.97c37.58,3.05,72.58,17.63,107.45,33.1c43.47,19.29,86.31,41.26,130.7,56.85
				c64.06,22.5,125.26,12.25,180.66-35.43c3.23-2.78,11.58-3.66,13.05-1.34c2.58,4.07,3.7,12.38,1.95,17.05
				C1291.94,359.04,1223.34,408.17,1160.46,404.2z"/>
			<path class="st0" d="M1058.83,612.39c-24.21-1.27-52.55-14.94-80.7-29.71c-30.79-16.15-61.15-34.21-92.5-47.88
				c-51.42-22.43-100.68-16.07-145.57,29.39c-2.37,2.4-8.97,2.6-9.96,0.49c-1.82-3.88-2.54-11.52-0.94-15.35
				c20.43-49,61.65-97.73,115.47-92.64c28.74,2.72,55.51,15.7,82.18,29.49c33.25,17.19,66.01,36.76,99.97,50.65
				c49,20.05,95.81,10.92,138.18-31.57c2.47-2.48,8.86-3.26,9.98-1.2c1.98,3.63,2.83,11.03,1.49,15.19
				C1159.4,572.15,1106.93,615.93,1058.83,612.39z"/>
			<path class="st0" d="M935.98,800.81c-19.94-1.1-43.27-12.99-66.45-25.84c-25.35-14.05-50.35-29.75-76.16-41.64
				c-42.34-19.51-82.9-13.97-119.87,25.56c-1.96,2.09-7.39,2.26-8.2,0.43c-1.5-3.37-2.09-10.02-0.77-13.35
				c16.83-42.61,50.76-84.99,95.08-80.56c23.67,2.36,45.71,13.66,67.67,25.65c27.38,14.95,54.36,31.97,82.31,44.05
				c40.34,17.43,78.89,9.49,113.78-27.45c2.04-2.16,7.29-2.84,8.22-1.04c1.63,3.16,2.33,9.59,1.23,13.21
				C1018.79,765.82,975.59,803.89,935.98,800.81z"/>
		</g>
		<g>
			<polygon class="st1" points="735.66,80.18 135.75,711.03 346.95,711.03 83.72,1217.48 695.87,583.67 478.69,588.13 			"/>
			<polygon class="st2" points="346.95,711.03 572.87,711.03 278.4,842.9 			"/>
		</g>
	</g>
</g>
</svg>
