<svg enable-background="new 0 0 1000 600" version="1.1" viewBox="0 0 1000 600" xml:space="preserve" xmlns="http://www.w3.org/2000/svg"> <path d="m558.59 97.266c-6.469 0-11.719 5.25-11.719 11.719s5.25 11.719 11.719 11.719 11.719-5.25 11.719-11.719-5.25-11.719-11.719-11.719z" fill="#FF0201"></path> <path d="m441.41 97.266c-6.469 0-11.719 5.25-11.719 11.719s5.25 11.719 11.719 11.719 11.719-5.25 11.719-11.719-5.25-11.719-11.719-11.719z" fill="#FF0201"></path> <path d="m754.44 350.25c10.058-15.096 15.09-33.932 15.09-50.252 0-24.604-10.93-47.464-29.686-62.966 4.15-9.919 6.248-20.235 6.248-30.784 0-32.643-19.05-63.05-47.373-77.25 4.297-35.642-18.927-68.311-53.344-76.644-13.47-31.14-43.452-52.356-75.063-52.356-29.426 0-55.818 17.163-70.313 42.206-14.496-25.043-40.888-42.206-70.312-42.206-31.613 0-61.596 21.216-75.064 52.357-34.624 8.386-57.63 41.218-53.345 76.643-28.322 14.198-47.373 44.607-47.373 77.25 0 10.549 2.098 20.865 6.249 30.784-18.756 15.502-29.686 38.361-29.686 62.966 0 16.406 5.074 35.217 15.09 50.251-9.788 13.816-15.09 30.191-15.09 47.015 0 21.815 8.845 42.598 24.491 58.029-8.044 48.623 30.733 97.83 80.978 97.83 0.363 0 0.721-6e-3 1.071-0.017 16.658 28.738 47.579 46.892 80.96 46.892 34.791 0 65.878-20.883 82.031-50.97 16.153 30.087 47.24 50.97 82.031 50.97 33.381 0 64.302-18.154 80.96-46.892 0.352 0.011 0.708 0.017 1.071 0.017 44.466 0 82.031-39.176 82.031-85.547 0-3.948-0.347-8.009-1.054-12.283 15.646-15.432 24.491-36.213 24.491-58.029 1e-3 -16.824-5.301-33.199-15.089-47.014zm-266.16-172.85c-6.9-4.002-14.902-6.306-23.438-6.306-6.473 0-11.719 5.247-11.719 11.719s5.246 11.719 11.719 11.719c12.924 0 23.438 10.514 23.438 23.438v222.85c-17.192-19.501-42.332-31.839-70.313-31.839-6.473 0-11.719 5.246-11.719 11.719s5.246 11.719 11.719 11.719c38.771 0 70.313 31.542 70.313 70.313 0 40.019-32.199 73.828-70.313 73.828-27.131 0-52.107-16.044-63.632-40.875-2.124-4.576-6.937-7.275-11.953-6.71-0.828 0.095-1.652 0.205-2.476 0.317-33.352 4.561-70.911-33.205-60.743-75.453 1.044-4.34-0.468-8.894-3.898-11.748-13.575-11.296-21.361-27.636-21.361-44.828 0-10.63 3.006-21.033 8.599-30.154 14.056 11.52 31.539 18.436 49.995 18.436 6.473 0 11.719-5.246 11.719-11.719s-5.246-11.719-11.719-11.719c-31.804 0-58.594-29.027-58.594-62.109 0-20.068 10.229-38.53 27.366-49.385 5.279-3.344 7.005-10.243 3.922-15.68-5.209-9.186-7.851-18.838-7.851-28.685 0-31.629 25.784-62.109 58.594-62.109 31.214 0 58.594 29.024 58.594 62.109 0 6.472 5.246 11.719 11.719 11.719s11.719-5.247 11.719-11.719c0-46.371-37.565-85.547-82.031-85.547-3.924 0-7.826 0.317-11.689 0.919-6e-3 -0.309-0.029-0.608-0.029-0.919 0-26.153 21.23-46.875 46.875-46.875 12.518 0 24.293 4.876 33.154 13.729 4.579 4.574 11.998 4.569 16.573-8e-3 4.573-4.58 4.57-11.999-9e-3 -16.573-10.69-10.679-24.213-17.49-38.867-19.747 10.335-15.341 27.521-27.791 47.742-27.791 31.214 0 58.594 29.022 58.594 62.109v91.851zm199.22 208.15c18.457 0 35.94-6.918 49.996-18.433 5.592 9.121 8.598 19.522 8.598 30.151 0 17.192-7.786 33.532-21.359 44.828-3.432 2.854-4.942 7.409-3.898 11.748 1.242 5.159 1.82 9.524 1.82 13.735 0 36.375-32.9 65.772-62.563 61.718-0.824-0.112-1.649-0.224-2.478-0.317-5.024-0.568-9.83 2.134-11.952 6.71-11.524 24.831-36.503 40.875-63.633 40.875-38.113 0-70.313-33.81-70.313-73.828 0-38.771 31.542-70.313 70.313-70.313 6.471 0 11.719-5.246 11.719-11.719s-5.248-11.719-11.719-11.719c-27.98 0-53.12 12.338-70.313 31.839v-222.85c0-12.923 10.514-23.438 23.438-23.438 6.471 0 11.719-5.247 11.719-11.719s-5.248-11.719-11.719-11.719c-8.535 0-16.537 2.304-23.438 6.306v-91.852c0-33.087 27.38-62.109 58.594-62.109 20.222 0 37.406 12.45 47.741 27.79-14.653 2.257-28.175 9.068-38.866 19.747-4.58 4.574-4.585 11.993-0.011 16.573 4.573 4.58 11.995 4.583 16.572 9e-3 8.865-8.853 20.64-13.729 33.157-13.729 25.773 0 46.875 20.844 46.875 46.875 0 0.31-0.023 0.61-0.029 0.919-3.863-0.602-7.766-0.919-11.689-0.919-44.466 0-82.031 39.176-82.031 85.547 0 6.472 5.248 11.719 11.719 11.719s11.719-5.247 11.719-11.719c0-33.085 27.38-62.109 58.594-62.109 32.791 0 58.594 30.465 58.594 62.109 0 9.847-2.642 19.499-7.851 28.685-3.082 5.437-1.355 12.335 3.924 15.68 17.135 10.855 27.364 29.317 27.364 49.385 0 33.2-26.884 62.109-58.594 62.109-6.471 0-11.719 5.246-11.719 11.719s5.248 11.719 11.719 11.719z"></path> <path d="m461.86 250.84c-4.315-4.823-11.723-5.236-16.547-0.921-37.58 33.615-97.656 6.75-97.656-43.672 0-6.472-5.246-11.719-11.719-11.719s-11.719 5.247-11.719 11.719c0 40.682 29.773 74.525 68.672 80.926-4.512 14.212-17.829 24.542-33.516 24.542-6.473 0-11.719 5.246-11.719 11.719s5.246 11.719 11.719 11.719c28.543 0 52.371-20.52 57.541-47.581 16.298-2.131 31.637-9.105 44.021-20.186 4.826-4.314 5.238-11.722 0.923-16.546z"></path> <path d="m335.94 455.86c-6.473 0-11.719 5.246-11.719 11.719s5.246 11.719 11.719 11.719c31.214 0 58.594 29.023 58.594 62.109 0 6.473 5.246 11.719 11.719 11.719s11.719-5.246 11.719-11.719c-1e-3 -46.371-37.567-85.547-82.032-85.547z"></path> <path d="m429.69 362.11c-39.71 0-73.805 21.779-91.758 53.447-3.191 5.631-1.214 12.782 4.416 15.974 5.631 3.19 12.781 1.215 15.974-4.416 13.986-24.675 40.524-41.567 71.368-41.567 6.473 0 11.719-5.246 11.719-11.719s-5.247-11.719-11.719-11.719z"></path> <path d="m640.62 311.72c-15.687 0-29.004-10.33-33.516-24.542 38.898-6.401 68.672-40.245 68.672-80.926 0-6.472-5.248-11.719-11.719-11.719s-11.719 5.247-11.719 11.719c0 32.309-26.285 58.594-58.594 58.594-14.433 0-28.305-5.299-39.063-14.921-4.822-4.315-12.231-3.904-16.547 0.921-4.315 4.824-3.902 12.232 0.922 16.547 12.385 11.08 27.725 18.054 44.021 20.186 5.17 27.061 28.998 47.581 57.541 47.581 6.471 0 11.719-5.246 11.719-11.719s-5.246-11.721-11.717-11.721z" fill="#FF0201"></path> <path d="m664.06 455.86c-44.466 0-82.031 39.176-82.031 85.547 0 6.473 5.248 11.719 11.719 11.719s11.719-5.246 11.719-11.719c0-33.086 27.38-62.109 58.594-62.109 6.471 0 11.719-5.246 11.719-11.719s-5.25-11.719-11.72-11.719z"></path> <path d="m662.07 415.56c-17.908-31.593-51.956-53.448-91.758-53.448-6.471 0-11.719 5.246-11.719 11.719s5.248 11.719 11.719 11.719c30.821 0 57.38 16.888 71.366 41.567 3.195 5.638 10.353 7.604 15.974 4.417 5.631-3.192 7.608-10.344 4.418-15.974z"></path></svg>