<svg enable-background="new 0 0 496.741 419.625" version="1.1" viewBox="0 0 496.74 419.62" xml:space="preserve" xmlns="http://www.w3.org/2000/svg"><path class="c-dark-SF" d="m208.2 112.23c15.423-16.129 36.896-26.109 60.787-26.109 31.653 0 59.274 17.642 74.093 43.852 12.702-5.646 27.018-8.771 41.835-8.771 56.956 0 103.33 46.674 103.33 104.24 0 57.562-46.271 104.23-103.33 104.23-6.955 0-13.71-0.705-20.464-2.016-12.903 23.085-37.702 38.609-66.028 38.609-11.795 0-23.084-2.822-32.965-7.662-13.104 30.948-43.648 52.521-79.334 52.521-37.097 0-68.851-23.487-81.049-56.452-5.242 1.108-10.887 1.715-16.532 1.715-44.254 0-80.041-36.189-80.041-80.848 0-30.041 16.129-56.05 39.919-70.163-4.838-11.291-7.661-23.791-7.661-36.896 0-51.412 41.633-93.045 93.146-93.045 30.443 2e-3 57.257 14.418 74.294 36.797" fill="none" stroke="#010101" stroke-miterlimit="10" stroke-width="17"></path> <path d="m78.057 249.63c-0.403 0.707 0.201 0.908 0.201 1.108 0.908 0.604 1.916 1.109 2.823 1.714 4.839 2.621 9.577 3.327 14.214 3.327 9.778 0 15.928-5.242 15.928-13.71v-0.202c0-7.862-6.956-10.686-13.307-12.702l-0.706-0.201c-4.839-1.512-8.972-3.023-8.972-6.148v-0.202c0-2.823 2.419-4.737 6.149-4.737 4.335 0 9.173 1.512 12.601 3.226 0 0 0.907 0.604 1.311-0.403 0.201-0.604 1.915-4.838 2.016-5.443 0.202-0.604-0.202-0.906-0.605-1.108-3.73-2.218-8.771-3.729-14.113-3.729h-0.907c-8.972 0-15.423 5.443-15.423 13.307v0.201c0 8.267 6.956 10.888 13.508 12.703l1.109 0.402c4.738 1.512 8.77 2.621 8.77 6.048v0.202c0 3.023-2.621 5.242-6.956 5.242-1.714 0-6.956 0-12.702-3.528-0.706-0.403-1.109-0.706-1.714-0.907-0.202-0.201-0.907-0.604-1.311 0.403l-1.914 5.137z" fill="#ED2024"></path> <path d="m222.11 249.63c-0.403 0.707 0.202 0.908 0.202 1.108 0.907 0.604 1.916 1.109 2.823 1.714 4.839 2.621 9.577 3.327 14.214 3.327 9.778 0 15.927-5.242 15.927-13.71v-0.202c0-7.862-6.955-10.686-13.306-12.702l-0.706-0.201c-4.838-1.512-8.972-3.023-8.972-6.148v-0.202c0-2.823 2.419-4.737 6.149-4.737 4.334 0 9.173 1.512 12.602 3.226 0 0 0.906 0.604 1.311-0.403 0.201-0.604 1.915-4.838 2.017-5.443 0.201-0.604-0.202-0.906-0.604-1.108-3.729-2.218-8.771-3.729-14.113-3.729h-0.907c-8.972 0-15.423 5.443-15.423 13.307v0.201c0 8.267 6.956 10.888 13.508 12.703l1.109 0.402c4.738 1.512 8.77 2.621 8.77 6.048v0.202c0 3.023-2.621 5.242-6.956 5.242-1.714 0-6.956 0-12.702-3.528-0.706-0.403-1.109-0.706-1.714-0.907-0.202-0.201-0.907-0.402-1.311 0.403l-1.918 5.137z" fill="#ED2024"></path> <path d="m320.3 233.1c0 4.738-0.906 8.468-2.62 11.291-1.714 2.621-4.335 3.932-8.064 3.932-3.528 0-6.149-1.311-7.863-3.932s-2.621-6.352-2.621-11.291c0-4.738 0.907-8.469 2.621-11.09 1.714-2.62 4.335-3.931 7.863-3.931s6.149 1.312 8.064 3.931c1.713 2.521 2.62 6.25 2.62 11.09m8.266-8.77c-0.705-2.823-2.016-5.04-3.729-7.157-1.714-2.017-3.729-3.527-6.351-4.838-2.42-1.109-5.443-1.715-8.771-1.715-3.325 0-6.351 0.605-8.771 1.715-2.419 1.108-4.737 2.821-6.351 4.838-1.715 2.017-3.024 4.537-3.729 7.157-0.706 2.621-1.109 5.646-1.109 8.771 0 3.226 0.403 6.148 1.109 8.771 0.705 2.621 2.016 5.04 3.729 7.158 1.714 2.017 3.729 3.527 6.351 4.737 2.42 1.107 5.444 1.714 8.771 1.714s6.352-0.604 8.771-1.714c2.419-1.108 4.737-2.823 6.351-4.737 1.714-2.017 3.024-4.335 3.729-7.158 0.706-2.62 1.109-5.646 1.109-8.771s-0.302-6.15-1.109-8.771" fill="#ED2024"></path> <path d="m395.9 246.81c-0.202-0.706-1.109-0.605-1.109-0.605-1.107 0.403-2.419 0.907-3.729 1.109-1.311 0.202-2.822 0.403-4.536 0.403-3.932 0-7.157-1.108-9.375-3.528-2.218-2.218-3.528-6.149-3.528-11.291 0-4.738 1.108-8.063 3.227-10.888 2.017-2.62 5.04-3.931 9.174-3.931 3.326 0 6.048 0.403 8.669 1.312 0 0 0.604 0.201 0.907-0.605 0.706-2.016 1.311-3.326 2.017-5.646 0.201-0.604-0.403-0.907-0.604-0.907-1.108-0.402-3.528-1.109-5.443-1.311-1.714-0.203-3.932-0.403-6.148-0.403-3.326 0-6.553 0.604-9.174 1.713s-4.839 2.823-6.553 4.839-3.226 4.537-3.932 7.157c-0.907 2.621-1.312 5.646-1.312 8.771 0 6.754 1.915 12.399 5.443 16.331 3.528 4.134 8.973 6.149 16.13 6.149 4.133 0 8.468-0.907 11.593-2.016 0 0 0.604-0.404 0.403-0.908l-2.12-5.745z" fill="#ED2024"></path> <path d="m410.32 228.46c0.403-2.621 1.109-4.838 2.218-6.553 1.714-2.621 4.335-3.932 7.863-3.932s6.048 1.512 7.863 3.932c1.107 1.715 1.713 3.932 1.915 6.553h-19.859zm27.621-5.847c-0.705-2.621-2.419-5.242-3.528-6.552-1.915-1.916-3.527-3.226-5.241-3.933-2.218-0.906-5.041-1.713-7.862-1.713-3.528 0-6.554 0.604-9.174 1.916-2.621 1.108-4.737 2.821-6.352 4.838-1.714 2.017-3.023 4.537-3.729 7.157-0.706 2.822-1.312 5.847-1.312 8.771 0 3.226 0.403 6.148 1.312 8.771 0.906 2.621 2.218 5.04 3.931 7.158 1.916 2.017 4.134 3.526 6.956 4.737 2.822 1.21 6.148 1.714 10.081 1.714 8.063 0 12.196-1.916 14.112-2.822 0.402-0.202 0.604-0.604 0.201-1.312l-1.915-5.041c-0.202-0.705-1.108-0.604-1.108-0.604-2.017 0.706-4.839 2.017-11.392 2.017-4.335 0-7.46-1.311-9.577-3.227-2.016-2.016-3.023-5.04-3.226-9.173h27.621s0.705 0 0.705-0.706c0.404-0.202 1.311-5.544-0.503-11.996z" fill="#ED2024"></path> <path d="m187.74 228.46c0.403-2.621 1.109-4.838 2.218-6.553 1.713-2.621 4.334-3.932 7.863-3.932s6.048 1.512 7.863 3.932c1.109 1.715 1.714 3.932 1.916 6.553h-19.86zm27.621-5.847c-0.706-2.621-2.419-5.242-3.528-6.552-1.916-1.916-3.528-3.226-5.242-3.933-2.218-0.906-5.04-1.713-7.863-1.713-3.327 0-6.552 0.604-9.173 1.916-2.621 1.108-4.738 2.821-6.351 4.838-1.713 2.017-3.024 4.537-3.73 7.157-0.706 2.822-1.31 5.847-1.31 8.771 0 3.226 0.403 6.148 1.31 8.771 0.908 2.621 2.218 5.04 3.932 7.158 1.916 2.017 4.133 3.526 6.956 4.737 2.823 1.21 6.149 1.714 10.081 1.714 8.064 0 12.198-1.916 14.113-2.822 0.403-0.202 0.605-0.604 0.202-1.312l-1.915-5.041c-0.202-0.705-1.109-0.604-1.109-0.604-2.017 0.706-4.839 2.017-11.392 2.017-4.334 0-7.459-1.311-9.577-3.227-2.016-2.016-3.024-5.04-3.226-9.173h27.722s0.706 0 0.706-0.706c0.301-0.202 1.209-5.544-0.606-11.996z" fill="#ED2024"></path> <path d="m127.55 246.61c-1.109-0.907-1.311-1.109-1.714-1.714-0.604-0.907-0.706-2.017-0.706-3.528 0-2.419 0.706-4.133 2.419-5.443 0 0 2.419-2.016 8.064-2.016 3.932 0 7.46 0.605 7.46 0.605v12.601s-3.528 0.705-7.46 0.907c-5.442 0.705-8.063-1.412-8.063-1.412m11.089-19.456c-1.109 0-2.621-0.201-4.335-0.201-2.419 0-4.738 0.403-6.956 0.907-2.218 0.604-4.133 1.512-5.847 2.621s-3.024 2.822-3.932 4.537c-0.907 1.914-1.512 3.931-1.512 6.351s0.403 4.738 1.311 6.353c0.907 1.713 2.016 3.225 3.528 4.334 1.512 1.108 3.327 1.916 5.646 2.42 2.218 0.604 4.738 0.705 7.359 0.705 2.822 0 5.645-0.201 8.468-0.705 2.822-0.404 6.048-1.109 6.956-1.312 0.907-0.202 1.916-0.604 1.916-0.604 0.706-0.201 0.604-0.906 0.604-0.906v-25.505c0-5.646-1.512-9.778-4.536-12.198-3.024-2.621-7.157-3.932-12.702-3.932-2.016 0-5.444 0.402-7.46 0.705 0 0-6.048 1.109-8.669 3.227 0 0-0.604 0.403-0.202 1.109l1.916 5.242c0.202 0.705 0.907 0.402 0.907 0.402s0.202 0 0.403-0.201c5.443-3.024 12.198-2.822 12.198-2.822 3.024 0 5.242 0.604 6.956 1.914 1.512 1.109 2.218 3.024 2.218 6.554v1.108c-2.017 0.099-4.235-0.103-4.235-0.103" fill="#ED2024"></path> <path d="m362.84 212.94c0.201-0.604-0.201-0.907-0.402-0.907-0.605-0.201-2.823-0.706-4.738-0.706-3.528-0.201-5.443 0.403-7.157 1.109s-3.527 2.016-4.737 3.326v-3.326c0-0.604-0.403-0.907-0.705-0.907h-7.157c-0.403 0-0.706 0.403-0.706 0.907v41.432c0 0.403 0.403 0.908 0.907 0.908h7.357c0.403 0 0.706-0.404 0.706-0.908v-20.665c0-2.823 0.403-5.646 0.907-7.358 0.604-1.715 1.513-3.227 2.42-4.133 0.907-0.908 2.218-1.715 3.326-2.017 1.311-0.403 2.621-0.604 3.729-0.604 1.514 0 3.024 0.402 3.024 0.402 0.605 0 0.706-0.201 0.907-0.706 0.706-1.411 2.218-5.141 2.319-5.847" fill="#ED2024"></path> <path d="m294.29 193.58c-0.907-0.202-1.713-0.403-2.821-0.605s-2.219-0.403-3.729-0.403c-5.041 0-8.973 1.512-11.795 4.334-2.822 2.823-4.738 6.956-5.646 12.601l-0.403 1.916h-6.351s-0.707 0-0.908 0.707l-1.107 5.847c0 0.604 0.201 0.907 0.907 0.907h6.147l-6.147 34.879c-0.605 2.822-1.109 5.04-1.714 6.955-0.604 1.714-1.108 3.023-1.915 3.933-0.808 0.906-1.312 1.513-2.621 1.915-0.908 0.403-2.017 0.604-3.228 0.604-0.705 0-1.512-0.2-2.217-0.2-0.605-0.202-0.906-0.202-1.512-0.605 0 0-0.706-0.2-0.907 0.403s-1.915 5.04-2.016 5.646c-0.102 0.604 0 0.906 0.403 1.108 0.706 0.401 1.512 0.604 2.621 0.705 1.512 0.403 2.822 0.403 4.131 0.403 2.621 0 4.84-0.403 6.756-1.108 1.914-0.706 3.527-1.916 5.039-3.528 1.715-1.916 2.621-3.729 3.528-6.148 0.907-2.42 1.915-5.646 2.419-9.375l6.15-35.484h9.173s0.706 0 0.907-0.706l1.109-5.847c0-0.605-0.202-0.907-0.908-0.907h-8.771c0-0.202 0.402-3.327 1.513-6.149 0.402-1.31 1.311-2.218 1.914-3.024 0.706-0.706 1.514-1.109 2.219-1.512 0.906-0.403 1.916-0.403 3.023-0.403 0.706 0 1.714 0.202 2.219 0.202 0.906 0.202 1.108 0.202 1.513 0.403 0.907 0.202 1.107 0 1.107-0.403l2.018-5.847c0.606-0.812 0.102-1.013-0.1-1.214" fill="#ED2024"></path> <path d="m170.09 253.77c0 0.403-0.403 0.706-0.706 0.706h-7.359c-0.403 0-0.706-0.404-0.706-0.706v-59.274c0-0.403 0.403-0.706 0.706-0.706h7.359c0.403 0 0.706 0.403 0.706 0.706v59.274z" fill="#ED2024"></path> <polygon points="201.44 117.37 207.49 123.52 214.35 118.08 207.29 108.8"></polygon> <path d="m196.48 37.924c-2.414 2.723-2.165 6.886 0.558 9.3s6.887 2.165 9.302-0.558c20.21-22.793 49.233-34.948 79.633-33.349 30.398 1.599 57.988 16.732 75.695 41.521 2.114 2.96 6.23 3.646 9.19 1.531 2.962-2.116 3.646-6.231 1.532-9.19-20.053-28.071-51.299-45.208-85.727-47.02s-67.297 11.953-90.183 37.765z" fill="#ED2024"></path> <path d="m222.78 61.303c-2.41 2.725-2.157 6.889 0.568 9.3 2.724 2.411 6.889 2.158 9.3-0.567 13.079-14.779 31.844-22.663 51.479-21.63 19.639 1.032 37.471 10.842 48.929 26.912 2.111 2.963 6.226 3.652 9.188 1.54 2.964-2.114 3.65-6.229 1.54-9.189-13.803-19.359-35.294-31.176-58.965-32.421-23.669-1.245-46.281 8.251-62.039 26.055z"></path></svg>