<svg enable-background="new 0 0 511.993 512" version="1.1" viewBox="0 0 511.99 512" xml:space="preserve" xmlns="http://www.w3.org/2000/svg"><path d="m501.99 0h-448.02c-5.52 0-10 4.477-10 10v160.56l-40 66.672c-6.02 10.031-5.141 22.898 2.188 32.02 5.375 6.691 13.313 10.492 21.863 10.492 0.211 0 0.418 0 0.625-8e-3 5.598-0.121 10.879-1.859 15.324-4.934v3.938c0 5.523 4.48 10 10 10h31.664v189.26c0 18.746 15.254 34 34 34 9.359 0 17.848-3.801 24-9.941 6.156 6.141 14.641 9.941 24 9.941 18.75 0 34-15.254 34-34v-189.27h122.72c5.523 0 10-4.477 10-10 0-5.52-4.477-10-10-10h-122.72v-12.605c0-0.074-8e-3 -0.145-0.012-0.215v-60.188l14.48 14.559c14.449 14.527 37.836 15.324 53.238 1.816l24.277-21.285c2.512-2.203 4.594-4.824 6.188-7.707v38.258c0 5.523 4.477 10 10 10h144c5.52 0 10-4.477 10-10v-108.73c0-5.523-4.48-10-10-10h-48c-5.523 0-10 4.477-10 10v16.574h-38c-5.523 0-10 4.477-10 10v23.102h-38c-2.598 0-4.957 0.996-6.734 2.621-0.926-6.066-3.77-11.758-8.18-16.125-10.105-10.012-25.758-11.16-37.227-2.738l-10.32 7.582-25.828-25.895c-11.195-11.227-24.965-18.941-39.977-22.621 7.414-8.699 11.906-19.965 11.906-32.266v-5.305c0-22.309-14.742-41.242-34.996-47.563h333.54v248.73h-82.73c-5.523 0-10 4.48-10 10 0 5.523 4.477 10 10 10h92.73c5.523 0 10-4.477 10-10v-268.73c1e-3 -5.523-4.475-10-9.999-10zm-86.18 122.63h28v88.734h-28v-88.734zm-48 26.574h28v62.16h-28v-62.16zm-48 33.102h28v29.059h-28v-29.059zm-255.84 86.425v-18.563l21.668-29.492v35.352c0 0.031-4e-3 0.063-4e-3 0.098v12.609h-21.664v-4e-3zm103.66 223.27c-7.719 0-14-6.281-14-14v-154.99c0-5.523-4.477-10-10-10-5.52 0-10 4.477-10 10v154.99c0 7.719-6.281 14-14 14s-14-6.281-14-14v-211.88h76v211.88c0 7.719-6.282 14-14 14zm71.621-318.14c3.492 3.5 9.02 3.926 13.004 0.996l17.25-12.676c3.48-2.559 8.238-2.207 11.313 0.836 1.738 1.723 2.656 4.016 2.582 6.465-0.074 2.445-1.129 4.684-2.973 6.297l-24.273 21.285c-7.488 6.566-18.855 6.176-25.871-0.883l-31.57-31.742c-2.855-2.871-7.164-3.738-10.906-2.191-3.742 1.543-6.184 5.191-6.184 9.242v74.637h-75.988v-55.945c0-4.324-2.773-8.156-6.883-9.504-4.105-1.348-8.617 0.102-11.176 3.582l-53.035 72.188c-1.496 2.035-3.805 3.234-6.328 3.289-0.063 4e-3 -0.121 4e-3 -0.18 4e-3 -2.461 0-4.742-1.094-6.285-3.016-2.109-2.625-2.359-6.324-0.629-9.207l57.441-95.742c10.77-17.953 30.469-29.105 51.402-29.105h3.664v29.672c0 5.52 4.477 10 10 10s10-4.48 10-10v-29.672h7.434c17.496 0 33.938 6.82 46.293 19.211l31.898 31.979zm-65.809-106.3v5.309c0 16.242-13.063 29.488-29.234 29.797h-1.156c-16.172-0.309-29.23-13.555-29.23-29.797v-5.309c0-16.438 13.371-29.813 29.809-29.813 16.44 0 29.811 13.371 29.811 29.813zm-79.625 0v5.309c0 12.801 4.859 24.488 12.824 33.32-17.18 5.281-32.371 16.27-42.676 31.32v-117.51h64.848c-20.254 6.324-34.996 25.254-34.996 47.563z"></path> <path d="m325.14 106.6c1.848 3.227 5.215 5.031 8.684 5.031 1.688 0 3.395-0.426 4.961-1.324l71.746-41.105c0.848 2.125 2.418 3.977 4.602 5.133 1.492 0.793 3.094 1.168 4.672 1.168 3.586 0 7.051-1.934 8.848-5.32l10-18.867c0.02-0.035 0.027-0.07 0.047-0.102 0.18-0.352 0.344-0.707 0.48-1.07 0.016-0.039 0.023-0.082 0.039-0.121 0.117-0.324 0.215-0.652 0.297-0.988 0.027-0.117 0.051-0.234 0.078-0.352 0.059-0.281 0.105-0.563 0.141-0.844 0.012-0.105 0.027-0.207 0.035-0.313 0.07-0.77 0.051-1.551-0.063-2.328-0.012-0.094-0.031-0.184-0.047-0.277-0.051-0.301-0.117-0.598-0.199-0.895-0.027-0.098-0.051-0.199-0.082-0.297-0.098-0.332-0.215-0.656-0.352-0.977-0.02-0.051-0.035-0.098-0.055-0.145-0.145-0.32-0.301-0.637-0.48-0.949-0.02-0.035-0.043-0.066-0.063-0.102-0.016-0.027-0.027-0.055-0.043-0.082-0.043-0.074-0.102-0.137-0.145-0.207-0.156-0.246-0.32-0.484-0.492-0.711-0.078-0.102-0.152-0.199-0.234-0.293-0.195-0.238-0.402-0.461-0.613-0.68-0.063-0.059-0.117-0.121-0.18-0.18-0.289-0.277-0.59-0.535-0.902-0.773-0.027-0.02-0.055-0.035-0.082-0.055-0.289-0.211-0.582-0.402-0.887-0.578-0.094-0.055-0.184-0.102-0.277-0.152-0.262-0.145-0.527-0.273-0.801-0.387-0.094-0.043-0.184-0.082-0.273-0.121-0.359-0.141-0.727-0.27-1.098-0.367-0.039-0.012-0.078-0.016-0.117-0.027-0.34-0.086-0.684-0.152-1.031-0.203-0.105-0.016-0.207-0.027-0.309-0.039-0.324-0.035-0.648-0.059-0.977-0.063-0.051 0-0.102-0.012-0.152-0.012h-24c-5.52 0-10 4.48-10 10 0 2.508 0.934 4.793 2.457 6.551l-69.426 39.773c-4.797 2.747-6.453 8.857-3.707 13.65z" fill="#ED2024"></path> <path d="m485.04 429.91c6.059-6.688 9.758-15.555 9.758-25.27v-9.133c0-20.77-16.898-37.664-37.664-37.664h-0.422c-20.77 0-37.664 16.895-37.664 37.664v9.133c0 9.715 3.695 18.582 9.758 25.27-6.695 3.961-12.469 9.305-16.941 15.641-4.469-6.332-10.246-11.68-16.938-15.641 6.059-6.688 9.758-15.555 9.758-25.27v-9.133c0-20.77-16.895-37.664-37.664-37.664h-0.422c-20.77 0-37.664 16.895-37.664 37.664v9.133c0 9.715 3.699 18.582 9.758 25.27-6.691 3.961-12.469 9.305-16.938 15.641-4.473-6.332-10.246-11.68-16.941-15.641 6.063-6.688 9.762-15.555 9.762-25.27v-9.133c0-20.77-16.898-37.664-37.668-37.664h-0.418c-20.77 0-37.668 16.895-37.668 37.664v9.133c0 9.715 3.699 18.582 9.762 25.27-16.109 9.531-26.941 27.078-26.941 47.113v24.973c0 5.523 4.48 10 10 10h270.34c5.523 0 10-4.477 10-10v-24.973c-1e-3 -20.035-10.833-37.582-26.939-47.113zm-45.992-34.398c0-9.742 7.922-17.668 17.664-17.668h0.422c9.738 0 17.664 7.926 17.664 17.668v9.133c0 9.738-7.926 17.664-17.664 17.664h-0.422c-9.742 0-17.664-7.926-17.664-17.664v-9.133zm-90.113 0c0-9.742 7.926-17.668 17.664-17.668h0.422c9.738 0 17.664 7.926 17.664 17.668v9.133c0 9.738-7.926 17.664-17.664 17.664h-0.422c-9.738 0-17.664-7.926-17.664-17.664v-9.133zm-90.114 0c0-9.742 7.926-17.668 17.664-17.668h0.422c9.742 0 17.664 7.926 17.664 17.668v9.133c0 9.738-7.922 17.664-17.664 17.664h-0.422c-9.738 0-17.664-7.926-17.664-17.664v-9.133zm-17.179 81.511c0-19.145 15.574-34.715 34.715-34.715h0.684c19.141 0 34.715 15.57 34.715 34.715v14.973h-70.113v-14.973zm90.113 0c0-19.145 15.574-34.715 34.715-34.715h0.68c19.145 0 34.715 15.57 34.715 34.715v14.973h-70.109v-14.973zm160.22 14.973h-70.113v-14.973c0-19.145 15.574-34.715 34.719-34.715h0.68c19.145 0 34.715 15.57 34.715 34.715v14.973z"></path> <path d="m373.67 285.81c1.859-1.871 2.93-4.438 2.93-7.07 0-2.629-1.07-5.207-2.93-7.066-1.859-1.871-4.441-2.934-7.07-2.934-2.641 0-5.211 1.063-7.07 2.934-1.871 1.859-2.93 4.438-2.93 7.066 0 2.633 1.059 5.211 2.93 7.07 1.859 1.859 4.43 2.93 7.07 2.93 2.629-1e-3 5.211-1.071 7.07-2.93z" fill="#ED2024"></path> </svg>