<svg width="511px" height="511px" enable-background="new 0 -3 511 511" version="1.1" viewBox="0 -3 511 511" xml:space="preserve" xmlns="http://www.w3.org/2000/svg"> <path d="m508.92 214.93-85.527-111.1c-3.166-4.109-8.939-5.123-13.318-2.339l-55.22 35.119h-72.019c-0.933 0-1.86 0.199-2.757 0.46l-55.84 16.074-57.941-15.848-56.3-35.805c-4.304-2.737-9.973-1.809-13.173 2.16l-94.6 117.18c-3.399 4.21-2.838 10.358 1.263 13.887l49.583 42.67 44.483 59.945c-13.01 13.859-12.756 35.719 0.78 49.26 6 5.996 13.629 9.383 21.478 10.171-0.273 1.777-0.413 3.583-0.413 5.415 0 9.458 3.684 18.351 10.37 25.037 6.69 6.689 15.583 10.374 25.041 10.374 0.128 0 0.253-8e-3 0.378-0.012-4e-3 0.242-0.016 0.479-0.016 0.722 0 9.458 3.684 18.351 10.371 25.041 6.69 6.686 15.583 10.37 25.041 10.37 1.868 0 3.715-0.152 5.528-0.433 0.768 7.875 4.164 15.539 10.183 21.559 6.901 6.905 15.969 10.355 25.037 10.355s18.136-3.45 25.041-10.355l5.416-5.415 2.272 1.833c6.846 6.631 15.735 9.945 24.624 9.945 9.068 0 18.136-3.45 25.036-10.355 7.045-7.044 10.495-16.343 10.352-25.594 9.247 0.14 18.55-3.307 25.594-10.348 7.037-7.04 10.487-16.331 10.352-25.578 9.633 0.151 18.771-3.548 25.59-10.367 7.045-7.044 10.495-16.343 10.352-25.594 9.255 0.141 18.549-3.307 25.594-10.352 12.023-12.023 13.571-30.607 4.655-44.326l32.479-68.023 48.83-42.02c4.033-3.473 4.649-9.493 1.401-13.707zm-402.13-91.731 40.483 25.743-88.066 107.29-35.291-30.374 82.874-102.66zm5.711 227.48 12.218-12.218c0.371-0.371 0.76-0.722 1.158-1.049 2.39-1.949 5.282-3.111 8.347-3.389 0.086-8e-3 0.175-8e-3 0.261-0.012 0.437-0.035 0.874-0.058 1.314-0.054 4.187 0.058 8.078 1.77 10.963 4.814 5.661 5.984 5.356 15.763-0.678 21.798l-11.848 11.848c-5.992 5.992-15.743 5.992-21.735 0-5.992-5.995-5.992-15.746 0-21.738zm31.435 62.362c-2.904-2.9-4.503-6.76-4.503-10.865s1.599-7.965 4.503-10.869l23.692-23.691c4.538-4.539 11.672-5.782 17.474-3.018 5.98 2.85 9.345 9.34 8.468 15.871-0.468 3.484-2.089 6.768-4.577 9.259l-23.318 23.313c-2.904 2.904-6.764 4.503-10.869 4.503-4.106 0-7.965-1.599-10.87-4.503zm35.774 36.121c-2.905-2.9-4.503-6.761-4.503-10.865 0-4.105 1.598-7.965 4.503-10.87l23.688-23.691c4.854-4.85 12.639-5.895 18.581-2.437 5.427 3.158 8.269 9.356 7.337 15.532-0.511 3.396-2.125 6.589-4.554 9.018l-23.313 23.313c-2.905 2.904-6.764 4.503-10.87 4.503-4.105 0-7.965-1.599-10.869-4.503zm40.748 31.501c-5.992-5.992-5.992-15.743 0-21.735l12.218-12.218c0.37-0.37 0.756-0.718 1.154-1.045 0.012-8e-3 0.02-0.016 0.027-0.023 1.988-1.614 4.324-2.694 6.815-3.166 0.058-8e-3 0.117-0.016 0.175-0.023 0.429-0.077 0.865-0.14 1.302-0.179 0.175-0.016 0.351-0.016 0.53-0.027 0.359-0.02 0.714-0.043 1.076-0.039 4.183 0.059 8.078 1.766 10.963 4.814 0.355 0.374 0.686 0.765 0.99 1.166 4.608 6.023 3.989 14.971-1.731 20.693l-11.786 11.786c-5.99 5.992-15.741 5.988-21.733-4e-3zm186.92-111.82c-5.992 5.996-15.743 5.992-21.735 0-0.218-0.218-0.448-0.421-0.682-0.612l-64.429-65.107c-3.895-3.934-10.238-3.965-14.172-0.07-3.934 3.892-3.965 10.234-0.074 14.168l65.127 65.805 0.023 0.023c5.992 5.992 5.992 15.747 0 21.739-2.904 2.904-6.765 4.503-10.869 4.503-4.109 0-7.969-1.599-10.87-4.503l-43.567-44.02c-3.891-3.934-10.233-3.965-14.167-0.074-3.934 3.896-3.965 10.237-0.074 14.172l42.9 43.345c0.219 0.272 0.452 0.534 0.702 0.783 5.992 5.992 5.992 15.747 0 21.739-5.996 5.992-15.751 5.988-21.743-4e-3l-23.777-24.027c-3.895-3.934-10.237-3.969-14.171-0.074-3.935 3.891-3.965 10.234-0.074 14.168l23.114 23.353c0.219 0.272 0.452 0.538 0.706 0.787 5.992 5.992 5.992 15.747 0 21.739-5.992 5.996-15.742 5.992-21.734 0-0.691-0.69-1.502-1.221-2.273-1.813-0.655-0.499-0.826-0.846-0.499-1.641 0.331-0.808 0.826-1.536 1.157-2.348 0.367-0.904 0.663-1.836 0.951-2.771 1.537-4.951 1.988-10.276 1.299-15.415-1.326-9.859-6.748-18.757-14.967-24.386-4.44-3.037-9.579-5.029-14.904-5.778 2.581-11.384-0.519-23.727-8.581-32.245-6.635-7.01-15.598-10.943-25.24-11.076-0.351-4e-3 -0.702-4e-3 -1.056 0 0.214-9.201-3.131-18.343-9.474-25.045-6.64-7.01-15.603-10.943-25.24-11.076-2.866-0.039-5.758 0.266-8.55 0.908-1.193-8.299-5.376-15.98-11.711-21.473-6.296-5.451-14.214-8.477-22.647-8.593-8.877-0.129-17.599 3.146-24.191 9.099l-38.733-52.19 92.663-112.89 29.532 8.078-38.569 68.058c-4.663 8.23-5.84 17.782-3.318 26.896 2.522 9.119 8.44 16.706 16.67 21.368 0.515 0.293 1.033 0.569 1.56 0.834 0.039 0.02 0.078 0.039 0.121 0.059 1.384 0.69 2.807 1.283 4.25 1.782 6.718 2.327 13.973 2.581 20.971 0.647 9.115-2.523 16.702-8.445 21.365-16.671l25.064-44.23 44.752 3.173 119.17 119.16c5.988 5.996 5.988 15.747-4e-3 21.739zm4.151-45.93-111.79-111.79c-0.211-0.214-0.434-0.417-0.664-0.608-1.609-1.341-3.605-2.152-5.711-2.3l-54.795-3.887c-3.79-0.261-7.556 1.754-9.427 5.057l-28.179 49.731c-2.023 3.571-5.318 6.14-9.275 7.235-3.953 1.096-8.102 0.581-11.676-1.442-3.571-2.023-6.141-5.317-7.236-9.275-1.096-3.957-0.585-8.105 1.442-11.676l37.618-66.39 15.244-4.386c0.102-0.031 0.199-0.07 0.3-0.102l56.892-16.429h68.741l85.816 109.09-27.298 57.169zm40.425-72.896-79.36-100.94 40.503-25.758 74.156 96.323-35.299 30.374z"></path> <path d="m309.58 117.8c2.565 0 5.13-0.979 7.088-2.936l68.443-68.444c3.914-3.914 3.914-10.257 0-14.171-3.914-3.915-10.257-3.915-14.171 0l-68.444 68.444c-3.914 3.915-3.914 10.257 0 14.172 1.957 1.956 4.523 2.935 7.084 2.935z" fill="#FF0201"></path> <path d="m194.33 114.86c1.957 1.957 4.522 2.936 7.088 2.936 2.562 0 5.126-0.979 7.083-2.936 3.915-3.915 3.915-10.257 0-14.172l-68.444-68.444c-3.915-3.915-10.257-3.915-14.171 0-3.915 3.914-3.915 10.257 0 14.171l68.444 68.445z" fill="#FF0201"></path> <path d="m255.5 117.8c5.532 0 10.02-4.487 10.02-10.02v-56.643c0-5.532-4.487-10.02-10.02-10.02s-10.02 4.487-10.02 10.02v56.643c0 5.533 4.488 10.02 10.02 10.02z" fill="#FF0201"></path> <path d="m246.25 14.816c1.591 3.856 5.556 6.386 9.739 6.168 4.133-0.214 7.763-3.006 9.041-6.939 1.282-3.965-0.113-8.483-3.435-11.01-3.389-2.581-8.113-2.725-11.657-0.382-3.953 2.612-5.485 7.813-3.688 12.163z" fill="#FF0201"></path> </svg>