<svg enable-background="new 0 0 512 512" version="1.1" viewBox="0 0 512 512" xml:space="preserve" xmlns="http://www.w3.org/2000/svg"> <path d="m486.4 0h-460.8c-14.139 0-25.6 11.461-25.6 25.6v375.47c0 14.139 11.461 25.601 25.6 25.601h170.67v8.533c0.019 6.069 3.271 11.67 8.533 14.694v27.973c0 18.851 15.282 34.133 34.134 34.133h34.133c18.852 0 34.134-15.282 34.134-34.133v-27.973c5.263-3.024 8.515-8.625 8.533-14.694v-8.533h170.67c14.138 0 25.6-11.462 25.6-25.601v-375.47c0-14.139-11.462-25.6-25.6-25.6zm-460.8 17.066h460.8c4.713 0 8.533 3.821 8.533 8.534v42.667h-477.87v-42.667c0-4.713 3.82-8.534 8.533-8.534zm187.73 392.53h85.333v25.6h-85.333v-25.6zm77.603-17.067h-9.336v-78.37c2.733 1.011 5.62 1.542 8.533 1.57 14.139 0 25.601-11.462 25.601-25.601 0-14.138-11.462-25.6-25.601-25.6-14.138 0-25.6 11.462-25.6 25.6v102.4h-17.066v-102.4c0-14.138-11.461-25.6-25.6-25.6s-25.6 11.462-25.6 25.6c0 14.139 11.461 25.601 25.6 25.601 2.914-0.028 5.8-0.56 8.533-1.57v78.37h-9.335c-3.55-18.475-18.432-30.83-34.074-43.818-23.646-19.627-50.458-41.882-50.458-92.715-0.724-31.901 11.631-62.71 34.194-85.273s53.372-34.917 85.273-34.194c31.9-0.724 62.71 11.631 85.273 34.194s34.917 53.372 34.193 85.273c0 50.833-26.812 73.088-50.458 92.715-15.641 12.987-30.523 25.344-34.072 43.818zm-9.336-102.4c0-4.713 3.82-8.533 8.533-8.533s8.533 3.82 8.533 8.533-3.82 8.533-8.533 8.533-8.533-3.82-8.533-8.533zm-51.2 0c0 4.713-3.82 8.533-8.533 8.533s-8.533-3.82-8.533-8.533 3.82-8.533 8.533-8.533 8.533 3.82 8.533 8.533zm59.733 187.73c0 9.425-7.641 17.066-17.066 17.066h-34.133c-9.426 0-17.067-7.642-17.067-17.066v-25.601h68.266v25.601zm196.27-68.267h-170.67c-0.016-5.807-2.982-11.208-7.876-14.336 2.739-12.373 14.114-21.846 28.049-33.416 25.234-20.942 56.627-46.968 56.627-105.85 0.827-36.458-13.291-71.669-39.078-97.455-25.786-25.787-60.997-39.906-97.455-39.078-36.458-0.828-71.669 13.292-97.455 39.078-25.787 25.786-39.906 60.997-39.078 97.455 0 58.88 31.394 84.906 56.627 105.81 13.935 11.571 25.31 21.043 28.049 33.417-4.904 3.133-7.873 8.55-7.876 14.369h-170.67c-4.713 0-8.534-3.82-8.534-8.533v-315.73h477.87v315.73c1e-3 4.713-3.82 8.534-8.533 8.534z"></path> <circle cx="42.667" cy="42.667" r="8.533"></circle> <circle cx="76.8" cy="42.667" r="8.533"></circle> <circle cx="110.93" cy="42.667" r="8.533"></circle> <path d="m452.27 51.2h17.066c4.713 0 8.534-3.821 8.534-8.534 0-4.712-3.821-8.533-8.534-8.533h-17.066c-4.713 0-8.533 3.821-8.533 8.533-1e-3 4.713 3.82 8.534 8.533 8.534z"></path> <path d="m298.67 51.2h119.47c4.712 0 8.533-3.821 8.533-8.534 0-4.712-3.821-8.533-8.533-8.533h-119.47c-4.712 0-8.533 3.821-8.533 8.533 0 4.713 3.821 8.534 8.533 8.534z"></path> <path d="m256 153.6c-6.15-9e-3 -12.292 0.454-18.372 1.382-4.401 0.688-7.532 4.645-7.19 9.086s4.042 7.872 8.496 7.878c0.439-1e-3 0.878-0.033 1.314-0.094 5.212-0.803 10.479-1.2 15.752-1.187 4.713 0 8.533-3.82 8.533-8.533s-3.82-8.532-8.533-8.532z"></path> <path d="m200.32 168.52c-29.573 19.194-47.217 52.231-46.72 87.484 0 4.713 3.82 8.533 8.533 8.533s8.533-3.82 8.533-8.533c-0.518-29.338 14.063-56.889 38.613-72.96 2.738-1.531 4.415-4.441 4.367-7.578s-1.813-5.994-4.596-7.441-6.136-1.25-8.731 0.512v-0.017z"></path> <path d="m112.47 163.28-22.187-12.8c-4.078-2.318-9.262-0.911-11.608 3.152-2.345 4.062-0.972 9.256 3.075 11.628l22.187 12.8c2.642 1.549 5.911 1.563 8.566 0.038s4.29-4.356 4.283-7.418c-7e-3 -3.063-1.654-5.886-4.316-7.4z" fill="#FF0201"></path> <path d="m93.867 256c0-4.713-3.82-8.533-8.533-8.533h-25.6c-4.713 0-8.533 3.82-8.533 8.533s3.82 8.533 8.533 8.533h25.6c4.712 0 8.533-3.82 8.533-8.533z" fill="#FF0201"></path> <path d="m103.94 333.94-22.186 12.801c-2.662 1.513-4.309 4.336-4.316 7.398s1.628 5.894 4.283 7.418c2.655 1.525 5.924 1.512 8.566-0.037l22.187-12.801c2.662-1.513 4.309-4.337 4.316-7.398 6e-3 -3.063-1.628-5.894-4.283-7.419-2.656-1.524-5.925-1.51-8.567 0.038z" fill="#FF0201"></path> <path d="m430.24 346.74-22.187-12.801c-2.642-1.549-5.911-1.563-8.566-0.038s-4.289 4.356-4.283 7.419c7e-3 3.062 1.654 5.886 4.316 7.398l22.187 12.801c4.077 2.318 9.262 0.91 11.607-3.151 2.346-4.062 0.973-9.257-3.074-11.628z" fill="#FF0201"></path> <path d="m452.27 247.47h-25.6c-4.713 0-8.533 3.82-8.533 8.533s3.82 8.533 8.533 8.533h25.6c4.713 0 8.533-3.82 8.533-8.533s-3.821-8.533-8.533-8.533z" fill="#FF0201"></path> <path d="m403.81 179.2c1.499 3e-3 2.971-0.392 4.267-1.144l22.187-12.8c4.047-2.372 5.42-7.566 3.075-11.628-2.346-4.063-7.53-5.47-11.608-3.152l-22.187 12.8c-3.345 1.931-4.975 5.868-3.976 9.599s4.379 6.325 8.242 6.325z" fill="#FF0201"></path></svg>