<svg enable-background="new 0 0 512 399.775" version="1.1" viewBox="0 0 512 399.78" xml:space="preserve" xmlns="http://www.w3.org/2000/svg"><path d="m343.66 119.73v-8.016c0-4.142-3.358-7.5-7.5-7.5-4.143 0-7.5 3.358-7.5 7.5v8.016c0 4.142 3.357 7.5 7.5 7.5 4.142 0 7.5-3.358 7.5-7.5z"></path> <path d="m384.26 127.23c4.143 0 7.5-3.358 7.5-7.5v-8.016c0-4.142-3.357-7.5-7.5-7.5-4.142 0-7.5 3.358-7.5 7.5v8.016c0 4.142 3.358 7.5 7.5 7.5z"></path> <path d="m383.08 148.72c-1.698-3.778-6.137-5.463-9.916-3.765-3.778 1.699-8.259 2.597-12.957 2.597s-9.178-0.898-12.957-2.597c-3.779-1.697-8.217-0.012-9.916 3.765-1.699 3.778-0.013 8.217 3.765 9.916 5.698 2.562 12.307 3.916 19.107 3.916 6.802 0 13.41-1.354 19.108-3.916 3.779-1.699 5.465-6.138 3.766-9.916z"></path> <path d="m112.62 172.76c-1.699 3.778-0.013 8.218 3.765 9.916 5.698 2.562 12.305 3.916 19.108 3.916s13.41-1.354 19.108-3.916c3.778-1.699 5.463-6.138 3.765-9.916-1.699-3.777-6.139-5.463-9.916-3.764-3.778 1.699-8.258 2.597-12.957 2.597s-9.178-0.898-12.957-2.597c-3.778-1.699-8.218-0.014-9.916 3.764z" fill="#ED2224"></path> <path d="m111.44 151.27c4.142 0 7.5-3.358 7.5-7.5v-8.016c0-4.142-3.358-7.5-7.5-7.5s-7.5 3.358-7.5 7.5v8.016c0 4.142 3.358 7.5 7.5 7.5z"></path> <path d="m159.54 151.27c4.142 0 7.5-3.358 7.5-7.5v-8.016c0-4.142-3.358-7.5-7.5-7.5s-7.5 3.358-7.5 7.5v8.016c0 4.142 3.358 7.5 7.5 7.5z"></path> <path d="m504.5 384.77h-8.532v-116.97c0-15.083-8.38-28.643-21.871-35.389l-44.14-22.07c-0.127-0.299-0.236-0.605-0.371-0.9-3.379-7.349-8.998-11.973-13.775-14.542v-13.68c14.739-13.129 24.046-32.233 24.046-53.478v-1.749c9.308-3.139 16.031-11.946 16.031-22.3v-32.065c0-35.076-28.537-63.613-63.612-63.613h-64.129c-26.236 0-47.582 21.344-47.582 47.581 0 10.354 6.725 19.16 16.033 22.3v49.846c0 29.39 17.797 54.69 43.177 65.72-5.2 2.046-12.723 6.952-16.875 15.979-1.444 3.139-2.394 6.53-2.856 10.159l-25.623 12.812c-13.49 6.746-21.871 20.306-21.871 35.389v11.036c-4.92 4.452-8.016 10.884-8.016 18.026v78.597c0 3.299 0.663 6.444 1.857 9.314h-20.781c1.195-2.87 1.858-6.016 1.858-9.314v-78.597c0-13.406-10.908-24.314-24.315-24.314h-23.782v-0.516c0-23.686-17.396-43.377-40.082-46.984v-9.107c20.508-10.214 35.465-29.961 39.006-53.413 10.862-11.484 16.839-26.611 16.839-42.802 0-25.933-8.407-49.83-23.672-67.288-16.008-18.307-38.733-28.39-63.989-28.39-3.37 0-6.7 0.177-9.981 0.519-10.28-15.248-27.595-24.568-46.131-24.568-30.656 0-55.597 24.941-55.597 55.597 0 16.056 6.782 31.043 18.717 41.606-1.75 7.226-2.685 14.767-2.685 22.523 0 20.688 9.725 39.35 26.7 51.324 3.778 13.512 11.42 25.419 21.665 34.454v19.343c-35.983 3.763-64.128 34.271-64.128 71.235v88.693h-8.533c-4.142 0-7.5 3.358-7.5 7.5 0 4.143 3.358 7.5 7.5 7.5h497c4.142 0 7.5-3.357 7.5-7.5 0-4.141-3.358-7.502-7.5-7.502zm-473.74-329.18c0-22.385 18.211-40.597 40.597-40.597 11.298 0 21.965 4.757 29.554 12.802-27.347 7.913-49.687 27.727-61.028 53.441-5.868-7.171-9.123-16.151-9.123-25.646zm25.171 92.342c-5.952-7.998-9.139-17.636-9.139-28.214 0-44.486 36.192-80.677 80.677-80.677 21.167 0 39.389 8.044 52.697 23.263 12.874 14.723 19.964 35.113 19.964 57.414 0 3.498-0.355 6.89-1.032 10.16v-0.46c0-12.198-9.101-22.262-21.17-23.409-18.834-1.79-54.037-7.35-78.185-24.473-3.099-2.197-7.348-1.731-9.897 1.083l-12.792 14.126c-12.817 14.151-20.237 32.197-21.123 51.187zm14.909 3.837c0-16.649 6.155-32.615 17.332-44.956l8.476-9.358c26.452 16.258 60.901 21.685 79.861 23.487 4.327 0.411 7.589 4.055 7.589 8.476v22.365c0 31.225-25.404 56.629-56.629 56.629s-56.629-25.403-56.629-56.643zm88.42 73.267h-3e-3c1e-3 -0.031 2e-3 -0.023 3e-3 0zm-14.974-3.637v2.528c0 13.545-11.02 24.563-24.565 24.563s-24.564-11.02-24.564-24.563v-8.25c9.716 4.935 20.69 7.734 32.313 7.734 5.791 1e-3 11.418-0.708 16.816-2.012zm88.178 154.05c0 5.136-4.179 9.314-9.315 9.314h-142.72c-5.136 0-9.315-4.179-9.315-9.314v-39.299c0-4.142-3.358-7.5-7.5-7.5s-7.5 3.358-7.5 7.5v39.299c0 3.299 0.663 6.443 1.858 9.314h-26.939v-88.693c0-29.795 23.134-54.271 52.381-56.453 6.087 14.031 20.069 23.871 36.312 23.871 16.202 0 30.154-9.793 36.265-23.769 15.987 2.068 28.381 15.761 28.381 32.302v0.516h-103.94c-13.407 0-24.315 10.906-24.315 24.314v7.234c0 4.143 3.358 7.5 7.5 7.5s7.5-3.357 7.5-7.5v-7.234c0-5.136 4.179-9.314 9.315-9.314h142.72c5.136 0 9.315 4.178 9.315 9.314v78.598zm183.59-159.53c3.071 6.932 2.002 16.979-3.064 29.328l-24.652-14.791 21.623-21.622c2.046 1.313 4.516 3.524 6.093 7.085zm-39.813 5.419-23.732-23.732c5.063 1.138 10.317 1.758 15.717 1.758 11.731 0 22.802-2.853 32.584-7.873v5.28l-24.569 24.567zm7.702 51.203h-15.404l3.057-29.063 4.645-2.787 4.645 2.787 3.057 29.063zm-72.347-144.81v-48.613h56.628c4.143 0 7.5-3.358 7.5-7.5s-3.357-7.5-7.5-7.5h-64.127c-4.705 0-8.533-3.828-8.533-8.532 0-17.965 14.616-32.581 32.582-32.581h64.129c26.805 0 48.612 21.808 48.612 48.613v32.064c0 4.705-3.828 8.532-8.531 8.532s-8.53-3.826-8.53-8.53v-16.26c0.086-6.056-2.24-11.806-6.555-16.195-4.442-4.519-10.632-7.111-16.98-7.111-4.142 0-7.5 3.358-7.5 7.5s3.358 7.5 7.5 7.5c2.353 0 4.642 0.957 6.282 2.626 1.487 1.514 2.289 3.465 2.253 5.492 0 0.043-1e-3 0.087-1e-3 0.13v16.319c0 10.352 6.723 19.158 16.03 22.297v1.749c0 31.225-25.404 56.629-56.63 56.629s-56.629-25.404-56.629-56.629zm24.832 88.184c1.581-3.566 4.056-5.779 6.093-7.089l21.625 21.625-24.652 14.791c-5.068-12.349-6.138-22.396-3.066-29.327zm-48.881 51.875c0-9.365 5.203-17.783 13.579-21.971l19.798-9.899c1.479 7.172 4.309 14.983 8.528 23.423 0.934 1.869 2.604 3.264 4.611 3.848 0.688 0.199 1.394 0.299 2.096 0.299 1.347 0 2.682-0.363 3.859-1.069l15.478-9.287-2.041 19.405h-64.61c-0.436 0-0.869 0.013-1.299 0.035l1e-3 -4.784zm153.34 107.66c0 5.136-4.179 9.314-9.314 9.314h-142.72c-5.137 0-9.315-4.179-9.315-9.314v-78.596c0-5.137 4.179-9.315 9.315-9.315h142.72c5.136 0 9.314 4.178 9.314 9.315v78.596zm40.081 9.314h-26.938c1.194-2.871 1.857-6.016 1.857-9.314v-78.596c0-13.408-10.907-24.315-24.314-24.315h-32.545l-2.041-19.404 15.478 9.287c1.177 0.706 2.513 1.069 3.859 1.069 0.703 0 1.409-0.1 2.097-0.299 2.005-0.584 3.677-1.979 4.611-3.848 5.732-11.466 8.939-21.793 9.61-30.898l34.747 17.375c8.376 4.188 13.579 12.606 13.579 21.971v116.97z"></path> <path d="m151.79 312.63c-12.976 0-23.532 10.557-23.532 23.531 0 12.976 10.557 23.532 23.532 23.532s23.532-10.557 23.532-23.532c0-12.974-10.557-23.531-23.532-23.531zm0 32.063c-4.705 0-8.532-3.827-8.532-8.532 0-4.703 3.828-8.531 8.532-8.531s8.532 3.828 8.532 8.531c0 4.705-3.828 8.532-8.532 8.532z"></path> <path d="m360.21 312.63c-12.976 0-23.532 10.557-23.532 23.531 0 12.976 10.558 23.532 23.532 23.532s23.532-10.557 23.532-23.532c0-12.974-10.556-23.531-23.532-23.531zm0 32.063c-4.705 0-8.532-3.827-8.532-8.532 0-4.703 3.828-8.531 8.532-8.531s8.532 3.828 8.532 8.531c0 4.705-3.827 8.532-8.532 8.532z"></path> </svg>